# File created by Blade
# Date/Time:  Tue Sep 30 19:29:27 2014
#---------------------------------------------------------
:version 1.10
:name HOM
:units
  mass 1.0
  length 1.000000
  angle deg
:documentation
     Acclaim Skeleton File
:root
   axis xyz
   order TX TY TZ RX RY RZ
   position 0.000000 0.000000 0.000000
   orientation 0 0 0
:bonedata
   begin
      id 1
      name RightUpLeg_dum
      direction -1.000000 0.000000 0.000000
      length 3.766986
      axis 0.0 0.0 0.0 xyz
   end
   begin
      id 2
      name LeftUpLeg_dum
      direction 1.000000 0.000000 0.000000
      length 3.766986
      axis 0.0 0.0 0.0 xyz
   end
   begin
      id 3
      name Spine_dum
      direction 0.000000 1.000000 0.000000
      length 7.779697
      axis 0.0 0.0 0.0 xyz
   end
   begin
      id 4
      name RightUpLeg
      direction 0.000000 -1.000000 0.000000
      length 18.017682
      axis 0.0 0.0 0.0 xyz
      dof rx ry rz
   end
   begin
      id 5
      name RightLeg
      direction 0.000000 -1.000000 0.000000
      length 16.881075
      axis 0.0 0.0 0.0 xyz
      dof rx ry rz
   end
   begin
      id 6
      name RightFoot
      direction 0.000000 -0.258819 0.965926
      length 5.770812
      axis 15.0 0.0 0.0 xyz
      dof rx ry rz
   end
   begin
      id 7
      name RightToeBase
      direction 0.000000 0.000000 1.000000
      length 2.952750
      axis 0.0 0.0 0.0 xyz
      dof rx ry rz
   end
   begin
      id 8
      name LeftUpLeg
      direction 0.000000 -1.000000 0.000000
      length 18.017682
      axis 0.0 0.0 0.0 xyz
      dof rx ry rz
   end
   begin
      id 9
      name LeftLeg
      direction 0.000000 -1.000000 0.000000
      length 16.881075
      axis 0.0 0.0 0.0 xyz
      dof rx ry rz
   end
   begin
      id 10
      name LeftFoot
      direction 0.000000 -0.258819 0.965926
      length 5.770812
      axis 15.0 0.0 0.0 xyz
      dof rx ry rz
   end
   begin
      id 11
      name LeftToeBase
      direction 0.000000 0.000000 1.000000
      length 2.952750
      axis 0.0 0.0 0.0 xyz
      dof rx ry rz
   end
   begin
      id 12
      name Spine
      direction 0.000000 1.000000 0.000000
      length 0.000000
      axis 0.0 0.0 0.0 xyz
      dof rx ry rz
   end
   begin
      id 13
      name Spine_dum1
      direction 0.000000 1.000000 0.000000
      length 10.941760
      axis 0.0 0.0 0.0 xyz
   end
   begin
      id 14
      name Spine_dum2
      direction 0.000000 1.000000 0.000000
      length 10.941760
      axis 0.0 0.0 0.0 xyz
   end
   begin
      id 15
      name Spine_dum3
      direction 0.000000 1.000000 0.000000
      length 16.646042
      axis 0.0 0.0 0.0 xyz
   end
   begin
      id 16
      name RightShoulder
      direction -1.000000 0.000000 0.000000
      length 7.708937
      axis 0.0 0.0 90.0 xyz
      dof rx ry rz
   end
   begin
      id 17
      name RightArm
      direction -1.000000 0.000000 0.000000
      length 11.521345
      axis 0.0 0.0 90.0 xyz
      dof rx ry rz
   end
   begin
      id 18
      name RightForeArm
      direction -1.000000 0.000000 0.000000
      length 10.175898
      axis 0.0 0.0 90.0 xyz
      dof ry rz rx
   end
   begin
      id 19
      name RightHand
      direction -1.000000 0.000000 0.000000
      length 0.000000
      axis 0.0 0.0 90.0 xyz
      dof rx ry rz
   end
   begin
      id 20
      name RightHand_dum1
      direction -1.000000 0.000000 0.000000
      length 3.937000
      axis 0.0 0.0 90.0 xyz
   end
   begin
      id 21
      name RightHand_dum2
      direction 0.000000 0.000000 0.000000
      length 0.000000
      axis 0.0 0.0 90.0 xyz
   end
   begin
      id 22
      name RightHandThumb1
      direction 0.000000 0.000000 1.000000
      length 3.937000
      axis 0.0 0.0 90.0 xyz
      dof rx rz ry
   end
   begin
      id 23
      name LeftShoulder
      direction 1.000000 0.000000 0.000000
      length 7.708937
      axis 0.0 0.0 -90.0 xyz
      dof rx ry rz
   end
   begin
      id 24
      name LeftArm
      direction 1.000000 0.000000 0.000000
      length 11.521345
      axis 0.0 0.0 -90.0 xyz
      dof rx ry rz
   end
   begin
      id 25
      name LeftForeArm
      direction 1.000000 0.000000 0.000000
      length 10.175898
      axis 0.0 0.0 -90.0 xyz
      dof ry rz rx
   end
   begin
      id 26
      name LeftHand
      direction 1.000000 0.000000 0.000000
      length 0.000000
      axis 0.0 0.0 -90.0 xyz
      dof rx ry rz
   end
   begin
      id 27
      name LeftHand_dum1
      direction 1.000000 0.000000 0.000000
      length 3.937000
      axis 0.0 0.0 -90.0 xyz
   end
   begin
      id 28
      name LeftHand_dum2
      direction 0.000000 0.000000 0.000000
      length 0.000000
      axis 0.0 0.0 -90.0 xyz
   end
   begin
      id 29
      name LeftHandThumb1
      direction 0.000000 0.000000 1.000000
      length 3.937000
      axis 0.0 0.0 -90.0 xyz
      dof rx rz ry
   end
   begin
      id 30
      name Head
      direction 0.000000 1.000000 0.000000
      length 4.527550
      axis 0.0 0.0 0.0 xyz
      dof rx ry rz
   end
:hierarchy
   begin
      root RightUpLeg_dum LeftUpLeg_dum Spine_dum
      RightUpLeg_dum RightUpLeg
      LeftUpLeg_dum LeftUpLeg
      Spine_dum Spine
      RightUpLeg RightLeg
      RightLeg RightFoot
      RightFoot RightToeBase
      LeftUpLeg LeftLeg
      LeftLeg LeftFoot
      LeftFoot LeftToeBase
      Spine Spine_dum1 Spine_dum2 Spine_dum3
      Spine_dum1 RightShoulder
      Spine_dum2 LeftShoulder
      Spine_dum3 Head
      RightShoulder RightArm
      RightArm RightForeArm
      RightForeArm RightHand
      RightHand RightHand_dum1 RightHand_dum2
      RightHand_dum2 RightHandThumb1
      LeftShoulder LeftArm
      LeftArm LeftForeArm
      LeftForeArm LeftHand
      LeftHand LeftHand_dum1 LeftHand_dum2
      LeftHand_dum2 LeftHandThumb1
   end

# File created by Blade
# Date/Time:  Mon Sep 22 17:23:16 2014
# Frame Rate: 120.000 fps
#------------------------------------------------------
:FULLY-SPECIFIED
:DEGREES
542
root 1.309778 37.720883 0.291096 -25.565527 32.242655 -4.530380
RightUpLeg -59.813116 18.973934 13.507849
RightLeg 27.838029 -0.000000 -0.000000
RightFoot -3.672464 -17.150592 20.340721
RightToeBase 2.381964 -0.000000 -0.000000
LeftUpLeg 23.219370 -22.479839 -11.984721
LeftLeg 13.355477 -0.000000 -0.000000
LeftFoot -8.204474 -1.441953 -12.510018
LeftToeBase 5.833117 -0.000000 -0.000000
Spine 37.255665 -36.377562 -13.097242
RightShoulder -1.681001 -30.835818 -9.246160
RightArm 13.536157 -26.655416 65.174302
RightForeArm -169.442649 -0.000000 44.198645
RightHand 99.784735 -0.000000 -169.419500
RightHandThumb1 -24.326973 -0.000000 -32.862282
LeftShoulder -2.366506 21.480281 16.157663
LeftArm 80.467363 -23.654948 -58.418770
LeftForeArm 34.056075 -0.000000 28.827124
LeftHand -20.664387 -0.000000 0.560260
LeftHandThumb1 -26.253704 0.000000 33.147579
Head -1.103460 13.500519 5.116450
543
root 1.340873 37.717209 0.268203 -25.722812 31.953040 -4.489275
RightUpLeg -59.990920 19.059091 13.694443
RightLeg 27.887604 -0.000000 -0.000000
RightFoot -2.395085 -16.719261 19.959519
RightToeBase 1.691053 -0.000000 -0.000000
LeftUpLeg 23.381573 -22.027001 -11.952494
LeftLeg 13.279131 -0.000000 -0.000000
LeftFoot -7.934175 -1.394856 -11.708671
LeftToeBase 4.490978 -0.000000 -0.000000
Spine 37.548061 -36.333926 -12.930237
RightShoulder -1.388056 -30.760891 -9.392403
RightArm 13.526321 -26.776107 65.050197
RightForeArm -169.639083 -0.000000 44.087158
RightHand 99.744245 -0.000000 -168.849117
RightHandThumb1 -24.326973 -0.000000 -32.862282
LeftShoulder -2.377630 21.426834 16.246958
LeftArm 80.380154 -23.777167 -58.590786
LeftForeArm 34.017903 -0.000000 28.853223
LeftHand -20.550294 -0.000000 0.503807
LeftHandThumb1 -26.253704 0.000000 33.147579
Head -1.199007 13.660639 4.993174
544
root 1.373104 37.715425 0.243702 -25.890915 31.689991 -4.480561
RightUpLeg -60.138579 19.201280 13.723645
RightLeg 27.864823 -0.000000 -0.000000
RightFoot -1.235983 -16.201519 19.317755
RightToeBase 0.906920 -0.000000 -0.000000
LeftUpLeg 23.549010 -21.687697 -11.941256
LeftLeg 13.218916 -0.000000 -0.000000
LeftFoot -7.865364 -1.360089 -11.549668
LeftToeBase 4.256191 -0.000000 -0.000000
Spine 37.860827 -36.360232 -12.756495
RightShoulder -1.161245 -30.674298 -9.518542
RightArm 13.576960 -26.840520 64.931538
RightForeArm -169.912175 -0.000000 43.916757
RightHand 99.637509 0.000000 -168.984871
RightHandThumb1 -24.326973 -0.000000 -32.862282
LeftShoulder -2.421005 21.422369 16.255680
LeftArm 80.324631 -23.963778 -58.602361
LeftForeArm 33.857984 -0.000000 28.826205
LeftHand -20.691877 0.000000 0.444411
LeftHandThumb1 -26.253704 0.000000 33.147579
Head -1.297172 14.043440 4.964921
545
root 1.402768 37.712955 0.223039 -26.043422 31.503803 -4.452307
RightUpLeg -60.252802 19.449347 13.539350
RightLeg 27.712604 -0.000000 -0.000000
RightFoot -0.379346 -15.914537 18.488429
RightToeBase 0.316251 -0.000000 -0.000000
LeftUpLeg 23.719801 -21.430087 -11.973638
LeftLeg 13.166360 -0.000000 -0.000000
LeftFoot -7.887418 -1.368148 -11.617649
LeftToeBase 4.453348 -0.000000 -0.000000
Spine 38.147878 -36.403565 -12.662491
RightShoulder -0.968710 -30.647353 -9.580688
RightArm 13.638292 -26.894935 64.810439
RightForeArm -170.108086 -0.000000 43.773498
RightHand 99.545168 -0.000000 -168.888782
RightHandThumb1 -24.326973 -0.000000 -32.862282
LeftShoulder -2.380945 21.394208 16.311685
LeftArm 80.169748 -24.163021 -58.493286
LeftForeArm 33.611422 -0.000000 28.771422
LeftHand -20.633943 -0.000000 0.417137
LeftHandThumb1 -26.253704 0.000000 33.147579
Head -1.294595 14.335281 5.008596
